<?xml version="1.0" standalone="no"?><!DOCTYPE svg PUBLIC "-//W3C//DTD SVG 1.1//EN" "http://www.w3.org/Graphics/SVG/1.1/DTD/svg11.dtd"><svg t="1750781110344" class="icon" viewBox="0 0 1024 1024" version="1.1" xmlns="http://www.w3.org/2000/svg" p-id="13967" xmlns:xlink="http://www.w3.org/1999/xlink" width="256" height="256"><path d="M227.58994173 772.84946173l267.32215309 166.86598321 314.96116148-143.04647902 28.86820345-391.46837333-638.33682172-10.22685234z" fill="#446BF4" p-id="13968"></path><path d="M211.2787595 546.04635653L494.91209482 667.34459259l334.37923555-114.17827556-11.00357531 128.54765038-323.37566024 109.12957629L219.95216592 667.34459259z" fill="#FEF6DD" p-id="13969"></path><path d="M200.40463803 394.97374025v47.63900839l292.30674172 90.35877136h97.7376395l242.46701828-93.98347852 5.95487605-33.01072593-6.86105283-75.60103505-258.7782005-27.1853037-51.78153086 14.49882863L347.5936395 299.43681581z" fill="#446BF4" p-id="13970"></path><path d="M200.40463803 394.97374025v47.63900839l292.30674172 90.35877136h28.73874964V317.68980543l-187.31968791-9.45012938z" fill="#1F53CC" p-id="13971"></path><path d="M200.40463803 394.97374025l-107.31722272-147.96572444 332.43742816-54.11169976 95.92528592 124.79348938z" fill="#6687F4" p-id="13972"></path><path d="M194.96757728 349.14708543l13.85155952-19.67698173c1.55344592-2.20071506 4.14252247-3.3657995 6.86105283-3.10689185l41.81358618 4.2719763 45.17938567-10.74466765 16.44063605-21.61878914c1.94180741-2.58907653 5.30760691-3.88361482 8.5439526-3.23634567l28.86820345 5.69596839-3.3657995 33.65799506-141.88139458 32.75181827-16.31118222-17.99408198z" fill="#C23660" p-id="13973"></path><path d="M645.85525728 192.89631605L962.75822617 256.9759605l-123.88731259 149.00135505-317.42078419-88.28751012z" fill="#5175F4" p-id="13974"></path><path d="M859.06571061 242.7360395L574.13783703 330.63518815l4.01306866 2.8479842 119.35642862 33.14017975 195.34582519-45.95610863c23.81950419-45.43829333-14.23992098-69.1283437-33.78744889-77.93120397z" fill="#4A6CE0" p-id="13975"></path><path d="M489.99284939 571.5487605l-109.38848396 75.60103505-40.38959407-550.95548838 114.30772939-8.41449878z" fill="#00F0D4" p-id="13976"></path><path d="M371.02478222 516.40143013l28.73874963-4.14252248s-22.13660445-193.66292543-25.63185777-217.48242962c-0.77672297-4.91924543-1.94180741-18.38244347-5.69596839-20.06534321-5.04869925-2.45962272-13.20429037 5.17815309-14.49882866 8.80286024l17.08790519 232.88743507zM489.99284939 571.5487605l-30.42164939 69.77561283-40.5190479-550.95548839 35.47034865-2.58907655z" fill="#00C2AB" p-id="13977"></path><path d="M468.89187555 284.03181037l-18.1235358-5.3076069L403.25878518 498.66625581l8.41449877 34.30526419 45.30883952-11.00357531 25.76131159-49.0630005z" fill="#00C2AB" p-id="13978"></path><path d="M470.83368297 310.18148347l-1.94180742-26.1496731-18.1235358-5.3076069-13.3337442 61.49056789 13.46319803 183.30661925 6.08432989-1.55344592 25.76131159-49.0630005z" fill="#00B39E" p-id="13979"></path><path d="M340.23071747 96.23674212a6.60201314 57.21744723 85.804 1 0 114.1281614-8.37303728 6.60201314 57.21744723 85.804 1 0-114.1281614 8.37303728Z" fill="#FEDC54" p-id="13980"></path><path d="M364.68643287 213.81099028a46.34354323 4.66024458 85.804 1 0 9.29550585-0.68196664 46.34354323 4.66024458 85.804 1 0-9.29550585 0.68196664Z" fill="#FFFFFF" p-id="13981"></path><path d="M761.84588642 678.73652939L492.71137975 532.97152 397.17445531 609.09037037l60.19602963-315.22006913 364.80088493 69.77561284z" fill="#FFFFFF" p-id="13982"></path><path d="M729.74133728 638.08802765l-237.02995753-105.11650765-50.74590025 50.22808494 47.50955458-248.68080197 287.77585777 55.01787653z" fill="#E6E6E6" p-id="13983"></path><path d="M713.68906272 441.44766419l-184.34224989-35.21144099c-4.53088395-0.9061768-7.50832197-5.30760691-6.731599-9.83849085 0.9061768-4.53088395 5.30760691-7.50832197 9.83849086-6.73159902l184.34224988 35.21144098c4.53088395 0.9061768 7.50832197 5.30760691 6.73159901 9.83849087-0.77672297 4.66033778-5.17815309 7.63777581-9.83849086 6.73159901zM700.22586469 512.25890765L515.88361482 476.91801283c-4.53088395-0.9061768-7.50832197-5.30760691-6.73159901-9.83849086 0.9061768-4.53088395 5.30760691-7.50832197 9.83849086-6.731599l184.34224986 35.21144098c4.53088395 0.9061768 7.50832197 5.30760691 6.73159902 9.83849087-0.9061768 4.66033778-5.30760691 7.63777581-9.83849086 6.86105283z" fill="#CFCFCF" p-id="13984"></path><path d="M686.63321283 582.94069728l-165.18308344-31.58673381c-4.53088395-0.9061768-7.50832197-5.30760691-6.73159902-9.83849088 0.9061768-4.53088395 5.30760691-7.50832197 9.83849087-6.73159901L689.74010469 566.37060741c4.53088395 0.9061768 7.50832197 5.30760691 6.73159901 9.83849086-0.77672297 4.66033778-5.17815309 7.63777581-9.83849087 6.73159901z" fill="#C7C7C7" p-id="13985"></path><path d="M292.31685531 383.58180347c-3.3657995-0.51781531-6.2137837-2.71853037-7.37886814-6.21378372l-48.41573136-147.96572444c-1.68289975-5.17815309-5.43706075-9.45012939-10.35630618-11.90975211-4.91924543-2.45962272-10.48576-2.84798419-15.6639131-1.16508444-5.17815309 1.68289975-9.45012939 5.43706075-11.90975208 10.35630618-2.45962272 4.91924543-2.84798419 10.48576-1.16508445 15.66391309 1.55344592 4.78979161-1.03563061 9.83849086-5.69596839 11.39193679-4.78979161 1.55344592-9.83849086-1.03563061-11.39193679-5.6959684-3.23634569-9.83849086-2.45962272-20.32425086 2.20071505-29.51547259 4.66033778-9.19122173 12.55702124-16.18172839 22.3955121-19.41807408 9.83849086-3.23634569 20.32425086-2.45962272 29.5154726 2.20071507 9.19122173 4.66033778 16.18172839 12.55702124 19.41807407 22.39551209L302.2848 371.67205136c1.55344592 4.78979161-1.03563061 9.83849086-5.82542222 11.39193679-1.4239921 0.64726914-2.84798419 0.64726914-4.14252247 0.51781532z" fill="#52D6E6" p-id="13986"></path><path d="M399.76353185 634.33386667l-32.36345679-352.11440987c-0.25890765-3.49525333-4.66033778-4.78979161-6.86105284-2.07126125L332.70644939 313.93564445l-59.16039902-10.74466765c-4.01306864-0.77672297-8.28504494 0.51781531-11.26248296 3.3657995L222.02342717 344.74565531l-50.61644642-10.35630617c-3.3657995-0.64726914-5.82542222 2.97743803-4.01306865 5.82542222l202.72469333 322.98729877 7.50832198-15.92282074 22.13660444-12.94538272z" fill="#FECD44" p-id="13987"></path><path d="M386.81814914 647.4087032l12.94538271-12.9453827-32.36345679-352.11440989c-0.25890765-3.49525333-4.66033778-4.78979161-6.86105284-2.07126122l-27.83257283 33.65799506 54.11169975 333.47305875z" fill="#FC6280" p-id="13988"></path><path d="M369.85969778 662.68425482l0.90617679 0.25890765 6.86105284-3.3657995-2.58907655-8.80286025L222.02342717 344.74565531l-50.61644642-10.35630617c-3.3657995-0.64726914-5.82542222 2.97743803-4.01306865 5.82542222l202.46578568 322.46948346z" fill="#FC355D" p-id="13989"></path><path d="M385.78251852 761.58697876l-56.95968395-53.07606913L545.65799506 342.02712494l111.33029136 74.95376592-97.60818567 124.01676642-66.668721-8.02613728z" fill="#00F0D4" p-id="13990"></path><path d="M628.50844445 401.18752395l-86.08679506 127.90038123-49.71026964 3.88361482-106.92886123 228.61545876 106.92886123-228.61545876 62.65565235 13.07483653 101.62125432-129.06546567z" fill="#00C2AB" p-id="13991"></path><path d="M580.04522814 411.26402085a67.05708247 38.18887902 33.96 1 0 42.66568363-63.34983295 67.05708247 38.18887902 33.96 1 0-42.66568363 63.34983295Z" fill="#FEDC54" p-id="13992"></path><path d="M468.55122429 513.69501015a5.82542222 40.90740939 33.96 1 0 45.70290212-67.85948259 5.82542222 40.90740939 33.96 1 0-45.70290212 67.85948259Z" fill="#FFFFFF" p-id="13993"></path><path d="M838.87091358 405.97731555l-346.15953383 126.99420445 173.07976692 229.65108939 336.19158914-178.25792z" fill="#6B8AF4" p-id="13994"></path><path d="M492.71137975 532.97152L200.40463803 394.97374025l27.1853037 377.87572148 267.32215309 166.86598321z" fill="#1F53CC" p-id="13995"></path><path d="M211.2787595 546.04635653l8.67340642 121.29823606 274.9599289 123.49895111V667.34459259z" fill="#FEDC54" p-id="13996"></path><path d="M200.27518419 394.97374025l-178.25792 157.93366914 280.78535112 199.22944 189.90876444-219.16532939z" fill="#446BF4" p-id="13997"></path><path d="M518.86105283 523.52139061l160.52274569 162.72346075s69.25779753 8.54395259 84.66280296-38.18887901L601.06423309 493.22919506l-82.20318026 30.29219555z" fill="#6480E3" p-id="13998"></path></svg>