<?xml version="1.0" standalone="no"?><!DOCTYPE svg PUBLIC "-//W3C//DTD SVG 1.1//EN" "http://www.w3.org/Graphics/SVG/1.1/DTD/svg11.dtd"><svg t="1750583885755" class="icon" viewBox="0 0 1024 1024" version="1.1" xmlns="http://www.w3.org/2000/svg" p-id="10331" xmlns:xlink="http://www.w3.org/1999/xlink" width="256" height="256"><path d="M292.3 713.5l206.5 128.9 243.3-110.5 22.3-302.4-493.1-7.9z" fill="#446BF4" p-id="10332"></path><path d="M279.7 538.3L498.8 632l258.3-88.2-8.5 99.3-249.8 84.3L286.4 632z" fill="#FEF6DD" p-id="10333"></path><path d="M271.3 421.6v36.8l225.8 69.8h75.5l187.3-72.6 4.6-25.5-5.3-58.4-199.9-21-40 11.2L385 347.8z" fill="#446BF4" p-id="10334"></path><path d="M271.3 421.6v36.8l225.8 69.8h22.2V361.9l-144.7-7.3z" fill="#1F53CC" p-id="10335"></path><path d="M271.3 421.6l-82.9-114.3 256.8-41.8 74.1 96.4z" fill="#6687F4" p-id="10336"></path><path d="M267.1 386.2l10.7-15.2c1.2-1.7 3.2-2.6 5.3-2.4l32.3 3.3 34.9-8.3 12.7-16.7c1.5-2 4.1-3 6.6-2.5l22.3 4.4-2.6 26-109.6 25.3-12.6-13.9z" fill="#C23660" p-id="10337"></path><path d="M615.4 265.5L860.2 315l-95.7 115.1-245.2-68.2z" fill="#5175F4" p-id="10338"></path><path d="M780.1 304L560 371.9l3.1 2.2 92.2 25.6 150.9-35.5c18.4-35.1-11-53.4-26.1-60.2z" fill="#4A6CE0" p-id="10339"></path><path d="M495 558l-84.5 58.4-31.2-425.6 88.3-6.5z" fill="#00F0D4" p-id="10340"></path><path d="M403.1 515.4l22.2-3.2s-17.1-149.6-19.8-168c-0.6-3.8-1.5-14.2-4.4-15.5-3.9-1.9-10.2 4-11.2 6.8l13.2 179.9zM495 558l-23.5 53.9-31.3-425.6 27.4-2z" fill="#00C2AB" p-id="10341"></path><path d="M478.7 335.9l-14-4.1L428 501.7l6.5 26.5 35-8.5 19.9-37.9z" fill="#00C2AB" p-id="10342"></path><path d="M480.2 356.1l-1.5-20.2-14-4.1-10.3 47.5 10.4 141.6 4.7-1.2 19.9-37.9z" fill="#00B39E" p-id="10343"></path><path d="M379.312318 190.83278a5.099898 44.199116 85.804 1 0 88.161288-6.467972 5.099898 44.199116 85.804 1 0-88.161288 6.467972Z" fill="#FEDC54" p-id="10344"></path><path d="M398.203776 281.656088a35.799284 3.599928 85.804 1 0 7.180557-0.526803 35.799284 3.599928 85.804 1 0-7.180557 0.526803Z" fill="#FFFFFF" p-id="10345"></path><path d="M705 640.8L497.1 528.2 423.3 587l46.5-243.5 281.8 53.9z" fill="#FFFFFF" p-id="10346"></path><path d="M680.2 609.4l-183.1-81.2-39.2 38.8 36.7-192.1 222.3 42.5z" fill="#E6E6E6" p-id="10347"></path><path d="M667.8 457.5l-142.4-27.2c-3.5-0.7-5.8-4.1-5.2-7.6 0.7-3.5 4.1-5.8 7.6-5.2l142.4 27.2c3.5 0.7 5.8 4.1 5.2 7.6-0.6 3.6-4 5.9-7.6 5.2zM657.4 512.2L515 484.9c-3.5-0.7-5.8-4.1-5.2-7.6 0.7-3.5 4.1-5.8 7.6-5.2l142.4 27.2c3.5 0.7 5.8 4.1 5.2 7.6-0.7 3.6-4.1 5.9-7.6 5.3z" fill="#CFCFCF" p-id="10348"></path><path d="M646.9 566.8l-127.6-24.4c-3.5-0.7-5.8-4.1-5.2-7.6 0.7-3.5 4.1-5.8 7.6-5.2L649.3 554c3.5 0.7 5.8 4.1 5.2 7.6-0.6 3.6-4 5.9-7.6 5.2z" fill="#C7C7C7" p-id="10349"></path><path d="M342.3 412.8c-2.6-0.4-4.8-2.1-5.7-4.8l-37.4-114.3c-1.3-4-4.2-7.3-8-9.2-3.8-1.9-8.1-2.2-12.1-0.9-4 1.3-7.3 4.2-9.2 8-1.9 3.8-2.2 8.1-0.9 12.1 1.2 3.7-0.8 7.6-4.4 8.8-3.7 1.2-7.6-0.8-8.8-4.4-2.5-7.6-1.9-15.7 1.7-22.8 3.6-7.1 9.7-12.5 17.3-15 7.6-2.5 15.7-1.9 22.8 1.7 7.1 3.6 12.5 9.7 15 17.3L350 403.6c1.2 3.7-0.8 7.6-4.5 8.8-1.1 0.5-2.2 0.5-3.2 0.4z" fill="#52D6E6" p-id="10350"></path><path d="M425.3 606.5l-25-272c-0.2-2.7-3.6-3.7-5.3-1.6L373.5 359l-45.7-8.3c-3.1-0.6-6.4 0.4-8.7 2.6L288 382.8l-39.1-8c-2.6-0.5-4.5 2.3-3.1 4.5l156.6 249.5 5.8-12.3 17.1-10z" fill="#FECD44" p-id="10351"></path><path d="M415.3 616.6l10-10-25-272c-0.2-2.7-3.6-3.7-5.3-1.6l-21.5 26 41.8 257.6z" fill="#FC6280" p-id="10352"></path><path d="M402.2 628.4l0.7 0.2 5.3-2.6-2-6.8L288 382.8l-39.1-8c-2.6-0.5-4.5 2.3-3.1 4.5l156.4 249.1z" fill="#FC355D" p-id="10353"></path><path d="M414.5 704.8l-44-41L538 380.7l86 57.9-75.4 95.8-51.5-6.2z" fill="#00F0D4" p-id="10354"></path><path d="M602 426.4l-66.5 98.8-38.4 3-82.6 176.6 82.6-176.6 48.4 10.1 78.5-99.7z" fill="#00C2AB" p-id="10355"></path><path d="M564.563319 434.183854a51.8 29.5 33.96 1 0 32.958225-48.936238 51.8 29.5 33.96 1 0-32.958225 48.936238Z" fill="#FEDC54" p-id="10356"></path><path d="M478.436855 513.309355a4.5 31.6 33.96 1 0 35.304404-52.419835 4.5 31.6 33.96 1 0-35.304404 52.419835Z" fill="#FFFFFF" p-id="10357"></path><path d="M764.5 430.1l-267.4 98.1 133.7 177.4 259.7-137.7z" fill="#6B8AF4" p-id="10358"></path><path d="M497.1 528.2L271.3 421.6l21 291.9 206.5 128.9z" fill="#1F53CC" p-id="10359"></path><path d="M279.7 538.3l6.7 93.7 212.4 95.4V632z" fill="#FEDC54" p-id="10360"></path><path d="M271.2 421.6l-137.7 122 216.9 153.9 146.7-169.3z" fill="#446BF4" p-id="10361"></path><path d="M517.3 520.9l124 125.7s53.5 6.6 65.4-29.5L580.8 497.5l-63.5 23.4z" fill="#6480E3" p-id="10362"></path></svg>